<?xml version="1.0" standalone="no"?>
<!DOCTYPE svg PUBLIC "-//W3C//DTD SVG 20010904//EN"
 "http://www.w3.org/TR/2001/REC-SVG-20010904/DTD/svg10.dtd">
<svg version="1.0" xmlns="http://www.w3.org/2000/svg"
 width="163.000000pt" height="163.000000pt" viewBox="0 0 163.000000 163.000000"
 preserveAspectRatio="xMidYMid meet">
<metadata>
Created by potrace 1.14, written by Peter Selinger 2001-2017
</metadata>
<g transform="translate(0.000000,163.000000) scale(0.100000,-0.100000)"
fill="#000000" stroke="none">
<path d="M170 1148 c0 -7 84 -95 188 -196 103 -101 264 -260 358 -353 l170
-169 142 0 c86 0 143 4 147 10 4 6 -155 170 -352 365 l-358 354 -147 1 c-111
0 -148 -3 -148 -12z"/>
<path d="M610 1148 c0 -13 679 -688 692 -688 10 0 10 -8 10 373 1 189 -3 312
-9 318 -5 5 -51 9 -104 7 l-94 -3 -5 -94 -5 -93 -96 96 -96 96 -147 0 c-104 0
-146 -3 -146 -12z"/>
</g>
</svg>
